<?xml version="1.0" encoding="UTF-8" standalone="no"?>
<svg width="240px" height="36px" viewBox="0 0 240 36" version="1.1" xmlns="http://www.w3.org/2000/svg" xmlns:xlink="http://www.w3.org/1999/xlink" xmlns:sketch="http://www.bohemiancoding.com/sketch/ns">
    <!-- Generator: Sketch 3.0.3 (7891) - http://www.bohemiancoding.com/sketch -->
    <title>logo-followanalytics</title>
    <desc>Created with Sketch.</desc>
    <defs></defs>
    <g id="Page-1" stroke="none" stroke-width="1" fill="none" fill-rule="evenodd" sketch:type="MSPage">
        <g id="Artboard" sketch:type="MSArtboardGroup" transform="translate(-581.000000, -182.000000)" fill="#FFFFFF">
            <g id="logo-followanalytics-+-Group" sketch:type="MSLayerGroup" transform="translate(572.000000, 182.000000)">
                <path d="M9,0 L9,26.3283582 L13.8490416,26.3283582 L13.8198407,16.6906507 L22.9203635,16.6906507 C23.5318895,16.6906507 23.7629574,16.2667199 23.9017675,15.685007 C24.1937765,14.3039808 24.6838437,11.9888331 24.6838437,11.9888331 L13.8198407,11.9888331 L13.8198407,4.77940825 C13.8198407,4.77940825 22.5944984,4.78330945 25.3304954,4.78330945 C25.6754045,4.78330945 26.1908638,4.54533601 26.3487179,3.77289764 C26.6407269,2.36933117 27.1333333,0 27.1333333,0 L9,0 L9,0 Z M35.6135512,7.52238806 C30.064146,7.52238806 26.6,11.7664298 26.6,16.9253731 C26.6,22.1205978 29.9934664,26.3283582 35.6491026,26.3283582 C41.3047388,26.3283582 44.7333333,22.1210349 44.7333333,16.9253731 C44.7329101,11.7664298 41.1629564,7.52238806 35.6135512,7.52238806 L35.6135512,7.52238806 Z M35.6666666,22.5671642 C32.4785333,22.5671642 30.8666667,19.9820768 30.8666667,17.2125609 C30.8666667,14.479666 32.5145623,11.8208955 35.6666666,11.8208955 C38.6043129,11.8208955 40.4666666,14.479666 40.4666666,17.2125609 C40.4670955,19.9820768 38.8547999,22.5671642 35.6666666,22.5671642 L35.6666666,22.5671642 Z M46.8666667,6.46503552 L46.8666667,26.3283582 L51.1333333,26.3283582 L51.1333333,4.8358209 C51.1333333,4.8358209 48.9892143,5.22740104 47.7409202,5.45571509 C46.9733028,5.58796493 46.8666667,5.9605907 46.8666667,6.46503552 L46.8666667,6.46503552 Z M53.8,1.61466495 L53.8,26.3283582 L58.0666667,26.3283582 L58.0666667,0 C58.0666667,0 55.9343509,0.391854259 54.6848358,0.621591822 C53.9066361,0.760734761 53.8,1.22757883 53.8,1.61466495 L53.8,1.61466495 Z M69.7468845,7.52238806 C64.1974793,7.52238806 60.7333333,11.7664298 60.7333333,16.9253731 C60.7333333,22.1205978 64.1267997,26.3283582 69.7824359,26.3283582 C75.4380721,26.3283582 78.8666667,22.1210349 78.8666667,16.9253731 C78.8662434,11.7664298 75.2962897,7.52238806 69.7468845,7.52238806 L69.7468845,7.52238806 Z M69.8,22.5671642 C66.6118667,22.5671642 65,19.9820768 65,17.2125609 C65,14.479666 66.6478956,11.8208955 69.8,11.8208955 C72.7372173,11.8208955 74.5999999,14.479666 74.5999999,17.2125609 C74.6004288,19.9820768 72.9881333,22.5671642 69.8,22.5671642 L69.8,22.5671642 Z M103.233917,7.52238806 C102.985761,7.52238806 102.549174,7.8379406 102.345602,8.54596709 C101.476215,11.7836586 98.397396,21.5889513 98.397396,21.5889513 L94.7877757,7.52238806 L91.2113831,7.52238806 L87.6349905,21.5889513 C87.6349905,21.5889513 84.5620604,11.8055112 83.6897284,8.55689342 C83.5181222,7.97823474 83.2375795,7.52238806 82.8388473,7.52238806 L78.8666667,7.52238806 L85.0953858,26.3283582 L89.8414771,26.3283582 L91.5461836,20.79264 L93.0170344,14.5366579 L94.4874647,20.79264 L96.1921712,26.3283582 L100.938263,26.3283582 L107.133333,7.52238806 C107.132492,7.52238806 104.467548,7.52238806 103.233917,7.52238806 L103.233917,7.52238806 Z M116.594299,0 L106.6,26.3283582 L108.446237,26.3283582 L110.865021,19.8591813 L111.533486,17.9784604 L111.546219,17.9446516 L123.488616,17.9446516 L123.501349,17.9784604 L124.169814,19.8591813 L126.620429,26.3283582 L128.466667,26.3283582 L118.472368,0 L116.594299,0 L116.594299,0 Z M111.933333,16.6567164 L117.266667,2.14925373 L122.6,16.6567164 L111.933333,16.6567164 L111.933333,16.6567164 Z M138.885208,7.52238806 C136.332897,7.55986302 133.781012,8.6065775 132.37528,11.1488445 L132.37528,7.85880123 L130.6,7.85880123 L130.6,26.3283582 L132.412363,26.3283582 L132.412363,16.0464345 C132.412363,12.233034 135.038413,9.35392303 138.811043,9.31644806 C142.768659,9.2789731 145.320971,11.5223019 145.320971,15.7095906 L145.320971,26.3279275 L147.133333,26.3279275 L147.133333,15.6729771 C147.133333,10.5509681 143.767761,7.52238806 138.885208,7.52238806 L138.885208,7.52238806 Z M165.630041,11.8631553 C164.148971,8.93099884 161.223045,7.52238806 158.333333,7.52238806 C153.348561,7.52238806 149.266667,11.4060477 149.266667,17.1558644 C149.266667,22.9056811 153.348561,26.8656716 158.333333,26.8656716 C161.223045,26.8656716 163.896298,25.4947876 165.630041,22.5630698 L165.630041,26.5612257 L167.4,26.5612257 L167.4,7.75138053 L165.630041,7.75138053 L165.630041,11.8631553 L165.630041,11.8631553 Z M158.164038,25.3479969 C154.413699,25.3479969 151.4,22.0896135 151.4,17.2214875 C151.4,12.3533614 154.413699,9.13432836 158.164038,9.13432836 C167.372221,9.13387606 167.372221,25.3479969 158.164038,25.3479969 L158.164038,25.3479969 Z M171.666667,26.3283582 L173.266667,26.3283582 L173.266667,0 L171.666667,0 L171.666667,26.3283582 L171.666667,26.3283582 Z M204.014964,25.1545047 C201.212137,25.1545047 200.702494,23.3671106 200.702494,20.819636 L200.702494,9.37418087 L206.817371,9.37418087 L206.817371,7.81503003 L200.702494,7.81503003 L200.702494,2.14925373 L198.955446,2.57682643 L198.955446,7.81503003 L195.133333,7.81503003 L195.133333,9.37418087 L198.955446,9.37418087 L198.955446,20.819636 C198.955446,24.5078886 200.192851,26.8656716 204.014964,26.8656716 C205.143309,26.8656716 206.271655,26.4854123 207.4,25.9150233 L206.781298,24.393986 C205.87149,24.8504725 204.888697,25.1545047 204.014964,25.1545047 L204.014964,25.1545047 Z M210.6,26.3283582 L212.2,26.3283582 L212.2,7.52238806 L210.6,7.52238806 L210.6,26.3283582 L210.6,26.3283582 Z M210.066667,1.34328358 C210.066667,3.13432836 212.733333,3.13432836 212.733333,1.34328358 C212.733333,-0.447761194 210.066667,-0.447761194 210.066667,1.34328358 L210.066667,1.34328358 Z M224.763957,9.23893903 C226.717809,9.23893903 228.745583,9.94782772 230.220212,11.440406 L231.4,10.2835719 C229.556608,8.45524947 227.160495,7.52238806 224.763957,7.52238806 C219.492085,7.52238806 215.4,11.1046619 215.4,16.9253731 C215.4,22.7465143 219.639505,26.3283582 224.763957,26.3283582 C227.160495,26.3283582 229.556608,25.4328972 231.4,23.5671744 L230.183251,22.3359693 C228.708622,23.8285476 226.717809,24.6122371 224.763957,24.6122371 C220.634911,24.6122371 217.16947,21.8884538 217.16947,16.925803 C217.16947,11.9631523 220.634911,9.23893903 224.763957,9.23893903 L224.763957,9.23893903 Z M241.466316,16.1327832 C239.17861,15.7154927 236.005161,15.2226091 235.931598,12.7193026 C235.857609,10.330041 238.588398,9.23022907 241.429746,9.26780707 C243.459341,9.26780707 245.267395,9.57105279 247.112442,11.2402151 L248.219301,10.0263583 C246.411248,8.28160306 244.086547,7.52305181 241.429746,7.52305181 C237.739651,7.48503686 234.160539,9.07816926 234.197534,12.7568806 C234.234528,16.5116219 237.740076,17.1941433 241.282194,17.8010716 C244.271094,18.2939552 247.29699,18.8252906 247.223001,21.517798 C247.112442,24.475973 243.754447,25.0829014 241.540305,25.0829014 C239.105046,25.0829014 236.374256,24.1347124 234.861734,21.8970736 L233.533333,23.1109304 C235.119845,25.6142369 238.293293,26.8656716 241.503735,26.8656716 C244.714178,26.8656716 248.883501,25.7658597 248.994484,21.6318428 C249.178607,17.2706101 244.713753,16.7016967 241.466316,16.1327832 L241.466316,16.1327832 Z M186.950517,20.0131214 C186.450987,21.6237986 185.835764,23.7179852 185.258967,25.4091743 L185.105265,25.4091743 C184.413192,23.7179852 183.682693,21.6237986 183.106313,20.0131214 L178.237991,7.52282562 L176.466667,7.52282562 L184.375184,27.5436168 L183.875655,29.234806 C182.953029,32.1743683 181.415181,34.3490669 179.147251,34.3490669 C178.608879,34.3490669 178.032499,34.3092484 177.647828,34.1482245 L177.263575,35.5974401 C177.763104,35.838976 178.455177,36 179.147251,36 C182.4535,36 184.298751,32.8184641 185.336653,29.5971099 L193,7.52238806 L191.228676,7.52238806 L186.950517,20.0131214 L186.950517,20.0131214 Z" id="logo-followanalytics" sketch:type="MSShapeGroup"></path>
            </g>
        </g>
    </g>
</svg>